# xmcd
#
# Track frame offsets:
#	150
#	11986
#	24435
#	42541
#	56303
#	72712
#	82588
#	97887
#	121268
#	132623
#	149608
#	162233
#	178324
#
# Disc length: 2514 seconds
#
# Revision: 2
# Processed by: cddbd v1.5.2PL0 Copyright (c) Steve Scherf et al.
# Submitted via: audiograbber 1.83.01
#
DISCID=b709d00d
DTITLE=Drake, Nick - Made to love magic
DYEAR=1974
DGENRE=Rock
TTITLE0=Rider on the wheel
TTITLE1=Magic
TTITLE2=River man
TTITLE3=Joey
TTITLE4=Thoughts of Mary Jane
TTITLE5=Mayfair
TTITLE6=Hanging on a star
TTITLE7=Three hours
TTITLE8=Clothes of sand
TTITLE9=Voices
TTITLE10=Time of no reply
TTITLE11=Black eyed dog
TTITLE12=Tow the line
EXTD=
EXTT0=
EXTT1=
EXTT2=
EXTT3=
EXTT4=
EXTT5=
EXTT6=
EXTT7=
EXTT8=
EXTT9=
EXTT10=
EXTT11=
EXTT12=
PLAYORDER=
